<svg width="68" height="68" viewBox="0 0 68 68" fill="none" xmlns="http://www.w3.org/2000/svg">
<g clip-path="url(#clip0_2906_36)">
<path d="M46.9759 39.3595C46.1349 39.5522 43.9212 39.6632 43.9212 39.6632L43.6409 40.5393C43.6409 40.5393 44.7448 40.4458 45.5508 40.5276C45.5508 40.5276 45.8136 40.4984 45.8428 40.8255C45.8545 41.1292 45.8195 41.4563 45.8195 41.4563C45.8195 41.4563 45.8019 41.6549 45.5216 41.7016C45.2179 41.7542 43.1386 41.8301 43.1386 41.8301L42.7998 42.969C42.7998 42.969 42.6772 43.2319 42.9575 43.1559C43.2204 43.0858 45.3989 42.677 45.6851 42.7354C45.9889 42.8113 46.3276 43.2143 46.2283 43.5881C46.1115 44.0437 43.9388 45.4338 42.6129 45.3345C42.6129 45.3345 41.9179 45.3812 41.328 44.4409C40.7789 43.5473 41.5382 41.8476 41.5382 41.8476C41.5382 41.8476 41.1936 41.0533 41.4448 40.7904C41.4448 40.7904 41.5966 40.6561 42.0288 40.6211L42.5604 39.5172C42.5604 39.5172 41.9529 39.5581 41.5908 39.1142C41.252 38.6878 41.2287 38.495 41.4857 38.3782C41.7602 38.2439 44.2892 37.7825 46.0297 37.8409C46.0297 37.8409 46.6372 37.7825 47.157 38.8338C47.1512 38.8338 47.4081 39.2602 46.9759 39.3595ZM40.4285 43.5998C40.2066 44.1255 39.6166 44.6862 38.8865 44.3358C38.1623 43.9853 37.0117 41.6315 37.0117 41.6315C37.0117 41.6315 36.5736 40.7554 36.4919 40.7729C36.4919 40.7729 36.3984 40.6035 36.34 41.5614C36.2816 42.5193 36.3517 44.3825 35.972 44.6745C35.6099 44.9666 35.1719 44.8497 34.9441 44.5051C34.7396 44.1664 34.652 43.3604 34.763 41.9469C34.8973 40.5335 35.2244 39.0266 35.645 38.5535C36.0655 38.0862 36.4042 38.425 36.5327 38.5476C36.5327 38.5476 37.0935 39.0558 38.0221 40.551L38.1857 40.8255C38.1857 40.8255 39.0267 42.2389 39.1143 42.2331C39.1143 42.2331 39.1844 42.2973 39.2428 42.2506C39.3304 42.2273 39.2954 41.7717 39.2954 41.7717C39.2954 41.7717 39.1202 40.2356 38.355 37.6306C38.355 37.6306 38.2382 37.3035 38.32 36.9998C38.3959 36.6903 38.7055 36.8363 38.7055 36.8363C38.7055 36.8363 39.897 37.432 40.4694 39.3712C41.0359 41.3278 40.6504 43.0742 40.4285 43.5998ZM34.5761 38.6177C34.4768 38.8163 34.4184 39.1025 33.9161 39.1784C33.9161 39.1784 29.1092 39.5055 28.8814 39.8443C28.8814 39.8443 28.712 40.0428 28.9749 40.1012C29.2377 40.1538 30.3241 40.2998 30.8497 40.329C31.4104 40.3349 33.3028 40.3524 33.9804 41.1993C33.9804 41.1993 34.3834 41.6023 34.3658 42.5135C34.3483 43.448 34.1848 43.775 33.8227 44.1138C33.443 44.4292 30.1839 45.8894 28.0812 43.6466C28.0812 43.6466 27.1117 42.566 28.4142 41.7483C28.4142 41.7483 29.3545 41.1818 31.7434 41.8476C31.7434 41.8476 32.4676 42.1104 32.4326 42.3733C32.3917 42.6536 31.8368 42.9515 31.0308 42.934C30.2481 42.9106 29.6758 42.5368 29.7867 42.5952C29.8919 42.6361 28.9457 42.1397 28.6536 42.4784C28.3616 42.788 28.4317 42.9807 28.7179 43.1735C29.448 43.5881 32.269 43.4421 33.1101 42.5076C33.1101 42.5076 33.443 42.128 32.9349 41.8184C32.4267 41.5264 30.9724 41.3512 30.4058 41.322C29.8627 41.2927 27.8418 41.3278 27.5497 40.7904C27.5497 40.7904 27.2577 40.4283 27.5789 39.4004C27.9177 38.3257 30.2715 37.911 31.2878 37.8175C31.2878 37.8175 34.0855 37.7182 34.5995 38.2906C34.5936 38.2906 34.6637 38.425 34.5761 38.6177ZM26.6327 44.9198C26.294 45.171 25.5756 45.06 25.3712 44.7796C25.1667 44.5285 25.0966 43.5297 25.1375 41.9644C25.1784 40.3816 25.2135 38.4191 25.5522 38.1096C25.9143 37.7942 26.1363 38.0687 26.2765 38.2848C26.4283 38.495 26.6094 38.7287 26.6503 39.2251C26.6853 39.7216 26.8021 42.3266 26.8021 42.3266C26.8021 42.3266 26.954 44.6745 26.6327 44.9198ZM27.3628 36.5209C26.3758 36.848 25.6982 36.737 25.1258 36.4917C24.8747 36.9297 24.7287 37.0641 24.5359 37.0933C24.2556 37.1225 24.0044 36.6727 23.9577 36.5267C23.911 36.4158 23.7766 36.2289 23.9402 35.785C23.3795 35.2827 23.3386 34.6051 23.432 34.1496C23.5722 33.6239 24.5184 31.6264 27.3979 31.3927C27.3979 31.3927 28.8055 31.2876 29.045 32.0411H29.0858C29.0858 32.0411 30.4526 32.0469 30.4234 33.2618C30.4058 34.4825 28.9048 36.0011 27.3628 36.5209ZM24.6761 33.8166C24.3841 34.2839 24.3724 34.5643 24.5067 34.757C24.8396 34.2489 25.4471 33.4487 26.3407 32.8412C25.6515 32.8997 25.0733 33.1975 24.6761 33.8166ZM28.6536 33.034C27.7483 33.1683 26.3466 34.3832 25.6807 35.3761C26.7028 35.563 28.5076 35.4929 29.3078 33.8634C29.3019 33.8634 29.6874 32.8529 28.6536 33.034ZM53.2313 42.4434C52.6881 43.3896 51.1637 45.3637 49.1312 44.9023C48.4595 46.5319 47.8988 48.1731 47.5775 50.6379C47.5775 50.6379 47.5074 51.1168 47.1103 50.9474C46.7189 50.8073 46.0648 50.1531 45.9363 49.2478C45.7961 48.0563 46.3276 46.0412 47.4081 43.7342C47.0927 43.2202 46.8766 42.4843 47.0635 41.4388C47.0635 41.4388 47.3381 39.4997 49.283 37.7474C49.283 37.7474 49.5166 37.543 49.651 37.6073C49.8028 37.6715 49.7327 38.3023 49.6101 38.606C49.4874 38.9097 48.6172 40.4166 48.6172 40.4166C48.6172 40.4166 48.074 41.4329 48.2258 42.2331C49.248 40.662 51.5726 37.4904 53.0152 38.4892C53.5 38.8338 53.7219 39.5873 53.7219 40.3991C53.7161 41.1175 53.5467 41.8768 53.2313 42.4434ZM52.8108 39.9552C52.8108 39.9552 52.729 39.3303 52.1216 40.0195C51.5959 40.5977 50.6497 41.6899 49.8846 43.1676C50.6848 43.08 51.4558 42.642 51.6894 42.42C52.069 42.0812 52.951 41.1701 52.8108 39.9552ZM24.4542 40.7496C24.3432 42.163 23.8 44.5402 19.951 45.7142C17.4103 46.4793 15.0097 46.1113 13.7014 45.7784C13.6722 46.2982 13.6138 46.5202 13.532 46.6078C13.4211 46.7188 12.5917 47.1977 12.1361 46.5202C11.9317 46.1989 11.8266 45.6149 11.7681 45.095C8.82443 43.74 7.46938 41.7892 7.41682 41.7016C7.35257 41.6373 6.68089 40.9365 7.35257 40.0779C7.98337 39.3011 10.0451 38.5243 11.9025 38.2089C11.9667 36.6202 12.1536 35.4228 12.3756 34.8738C12.6443 34.2372 12.983 34.8096 13.275 35.2418C13.5204 35.563 13.6664 36.9473 13.6781 38.0512C14.8929 37.9927 15.6113 38.0804 16.9664 38.3257C18.7303 38.6469 19.9101 39.5464 19.805 40.5685C19.729 41.5731 18.8062 41.9878 18.4558 42.017C18.0878 42.0462 17.5154 41.7834 17.5154 41.7834C17.1241 41.5965 17.4862 41.4329 17.9593 41.2285C18.4733 40.9773 18.3565 40.7204 18.3565 40.7204C18.1637 40.1596 15.8742 39.7683 13.5963 39.7683C13.5846 41.0241 13.6489 43.1092 13.6781 44.3241C15.2726 44.6278 16.4641 44.5694 16.4641 44.5694C16.4641 44.5694 22.2814 44.4058 22.4566 40.6912C22.6377 36.9706 16.6568 33.402 12.2354 32.2689C7.81983 31.1124 5.32 31.9184 5.1039 32.0294C4.87027 32.1462 5.08637 32.1812 5.08637 32.1812C5.08637 32.1812 5.32584 32.2163 5.74053 32.3565C6.17859 32.4966 5.83983 32.7244 5.83983 32.7244C5.08637 32.9639 4.23947 32.812 4.07593 32.4674C3.91239 32.1228 4.18691 31.8133 4.5023 31.3694C4.8177 30.9021 5.1623 30.9196 5.1623 30.9196C10.6234 29.0273 17.2759 32.4499 17.2759 32.4499C23.508 35.6097 24.571 39.3127 24.4542 40.7496ZM7.97168 40.5568C7.35257 40.8605 7.77894 41.2986 7.77894 41.2986C8.94124 42.5485 10.3722 43.3312 11.7331 43.8159C11.8908 41.6607 11.8674 40.9014 11.885 39.815C9.75894 39.9611 8.53239 40.2998 7.97168 40.5568Z" fill="white"/>
<path d="M64.7959 40.1129V40.8839C64.7959 41.0533 64.6616 41.1876 64.4922 41.1876H60.8184C60.8184 41.3803 60.8242 41.5497 60.8242 41.7074C60.8242 42.8464 60.7775 43.775 60.6665 44.8205C60.649 44.9782 60.5205 45.095 60.3687 45.095H59.5743C59.4926 45.095 59.4166 45.06 59.3641 45.0016C59.3115 44.9432 59.2823 44.8614 59.294 44.7796C59.4049 43.74 59.4575 42.823 59.4575 41.7074C59.4575 41.5439 59.4575 41.3745 59.4517 41.1876H55.8187C55.6494 41.1876 55.515 41.0533 55.515 40.8839V40.1129C55.515 39.9435 55.6494 39.8092 55.8187 39.8092H59.3991C59.3232 38.5534 59.1713 37.3444 58.926 36.1179C58.9143 36.0419 58.9318 35.966 58.9786 35.9076C59.0253 35.8492 59.0954 35.8141 59.1713 35.8141H60.0299C60.1642 35.8141 60.2752 35.9076 60.3044 36.0419C60.5439 37.3094 60.6957 38.5418 60.7717 39.8092H64.4922C64.6557 39.8092 64.7959 39.9494 64.7959 40.1129Z" fill="white"/>
<path d="M59.7963 33.9977C57.898 29.331 54.6915 25.3534 50.5212 22.4915C46.2517 19.5653 41.2462 18.0175 36.048 18.0175C27.4504 18.0175 19.472 22.2871 14.7119 29.4419C14.6593 29.5179 14.6476 29.6171 14.6768 29.7048C14.706 29.7982 14.7761 29.8625 14.8637 29.8917L15.5296 30.1194C15.5704 30.1311 15.6113 30.137 15.6464 30.137C15.769 30.137 15.8858 30.0727 15.9559 29.9734C18.1403 26.761 21.0957 24.0918 24.5067 22.2462C28.0287 20.3421 32.0179 19.3317 36.0421 19.3317C40.9074 19.3317 45.5975 20.7685 49.6159 23.4786C53.535 26.1244 56.578 29.8216 58.4179 34.1612C58.4704 34.2897 58.5989 34.3773 58.7391 34.3773H59.5334C59.6269 34.3773 59.7145 34.3306 59.7612 34.2547C59.8196 34.1787 59.8313 34.0853 59.7963 33.9977ZM15.6464 29.9384H15.658C15.658 29.9384 15.6522 29.9384 15.6464 29.9384ZM58.5756 34.2722C58.5931 34.2839 58.6106 34.2956 58.6281 34.3014C58.6106 34.2897 58.5931 34.2839 58.5756 34.2722Z" fill="white"/>
</g>
<defs>
<clipPath id="clip0_2906_36">
<rect width="60.8018" height="33" fill="white" transform="translate(4 18)"/>
</clipPath>
</defs>
</svg>
