<svg width="68" height="68" viewBox="0 0 68 68" fill="none" xmlns="http://www.w3.org/2000/svg">
<g clip-path="url(#clip0_2906_14)">
<path fill-rule="evenodd" clip-rule="evenodd" d="M37.3218 9.43587L37.303 20.3074L37.2842 31.1789L36.4053 28.6551C36.405 28.6543 36.4039 28.6511 36.4036 28.6502L35.2679 52.853C36.3845 56.0621 36.9828 57.7753 36.9895 57.7821C36.9983 57.7911 37.6346 57.8301 38.4036 57.869C40.7334 57.9866 43.6205 58.2387 45.8107 58.5157C46.3178 58.5798 46.7542 58.6126 46.7804 58.5887C46.8067 58.5647 46.821 47.4955 46.8122 33.9905L46.7962 9.43587H37.3218ZM20.1852 9.40352V33.983C20.1852 47.5017 20.1982 58.5758 20.2141 58.592C20.23 58.6082 21.0526 58.5292 22.0422 58.4164C23.0318 58.3036 24.3994 58.1633 25.0813 58.1047C26.1273 58.0149 29.2501 57.8106 29.6117 57.8083C29.7169 57.8076 29.7236 57.2553 29.7389 47.3975L29.755 36.9873L30.5106 39.1629C30.6273 39.4992 30.664 39.6042 30.7777 39.9318L31.9132 15.7349C31.6726 15.0427 31.7987 15.4061 31.523 14.6128C30.5953 11.9434 29.8081 9.67935 29.7736 9.58147L29.7108 9.40352H20.1852Z" fill="#B1060F" stroke="black" stroke-width="0.310123"/>
<path fill-rule="evenodd" clip-rule="evenodd" d="M20.1852 9.40352V23.2007L29.7357 48.9829C29.7367 48.3921 29.7378 48.0728 29.7389 47.3975L29.755 36.9873L30.5106 39.1629C34.7165 51.2746 36.9762 57.7686 36.9895 57.7821C36.9983 57.7911 37.6346 57.8301 38.4036 57.869C40.7334 57.9866 43.6205 58.2387 45.8106 58.5157C46.3177 58.5798 46.7542 58.6126 46.7804 58.5887C46.7985 58.5722 46.8103 53.1447 46.8134 45.4881L37.3076 17.6754L37.303 20.3074L37.2841 31.1789L36.4053 28.6551C35.5465 26.1892 34.9731 24.54 31.523 14.6128C30.5953 11.9434 29.8081 9.67935 29.7735 9.58147L29.7108 9.40352H20.1852Z" fill="url(#paint0_radial_2906_14)"/>
<path fill-rule="evenodd" clip-rule="evenodd" d="M20.1856 9.40351L29.7553 36.9998V36.9873L30.5108 39.1629C34.7168 51.2746 36.9765 57.7686 36.9897 57.7821C36.9985 57.791 37.6349 57.8301 38.4039 57.8689C40.7337 57.9866 43.6208 58.2387 45.8109 58.5156C46.3154 58.5794 46.7496 58.6122 46.7799 58.589L37.2844 31.1738V31.1789L36.4055 28.6551C35.5468 26.1891 34.9734 24.54 31.5233 14.6128C30.5956 11.9434 29.8083 9.67933 29.7738 9.58146L29.711 9.4035L20.1856 9.40351Z" fill="#E50914"/>
<path fill-rule="evenodd" clip-rule="evenodd" d="M37.3218 9.43587L37.303 20.3074L37.2842 31.1789L36.4053 28.6551C36.405 28.6543 36.4039 28.6511 36.4036 28.6502L35.2679 52.853C36.3845 56.0621 36.9828 57.7753 36.9895 57.7821C36.9983 57.7911 37.6346 57.8301 38.4036 57.869C40.7334 57.9866 43.6205 58.2387 45.8107 58.5157C46.3178 58.5798 46.7542 58.6126 46.7804 58.5887C46.8067 58.5647 46.821 47.4955 46.8122 33.9905L46.7962 9.43587H37.3218ZM20.1852 9.40352V33.983C20.1852 47.5017 20.1982 58.5758 20.2141 58.592C20.23 58.6082 21.0526 58.5292 22.0422 58.4164C23.0318 58.3036 24.3994 58.1633 25.0813 58.1047C26.1273 58.0149 29.2501 57.8106 29.6117 57.8083C29.7169 57.8076 29.7236 57.2553 29.7389 47.3975L29.755 36.9873L30.5106 39.1629C30.6273 39.4992 30.664 39.6042 30.7777 39.9318L31.9132 15.7349C31.6726 15.0427 31.7987 15.4061 31.523 14.6128C30.5953 11.9434 29.8081 9.67935 29.7736 9.58147L29.7108 9.40352H20.1852Z" fill="#B1060F" stroke="black" stroke-width="0.310123"/>
<path fill-rule="evenodd" clip-rule="evenodd" d="M20.1852 9.40352V23.2007L29.7357 48.9829C29.7367 48.3921 29.7378 48.0728 29.7389 47.3975L29.755 36.9873L30.5106 39.1629C34.7165 51.2746 36.9762 57.7686 36.9895 57.7821C36.9983 57.7911 37.6346 57.8301 38.4036 57.869C40.7334 57.9866 43.6205 58.2387 45.8106 58.5157C46.3177 58.5798 46.7542 58.6126 46.7804 58.5887C46.7985 58.5722 46.8103 53.1447 46.8134 45.4881L37.3076 17.6754L37.303 20.3074L37.2841 31.1789L36.4053 28.6551C35.5465 26.1892 34.9731 24.54 31.523 14.6128C30.5953 11.9434 29.8081 9.67935 29.7735 9.58147L29.7108 9.40352H20.1852Z" fill="url(#paint1_radial_2906_14)"/>
<path fill-rule="evenodd" clip-rule="evenodd" d="M20.1856 9.40351L29.7553 36.9998V36.9873L30.5108 39.1629C34.7168 51.2746 36.9765 57.7686 36.9897 57.7821C36.9985 57.791 37.6349 57.8301 38.4039 57.8689C40.7337 57.9866 43.6208 58.2387 45.8109 58.5156C46.3154 58.5794 46.7496 58.6122 46.7799 58.589L37.2844 31.1738V31.1789L36.4055 28.6551C35.5468 26.1891 34.9734 24.54 31.5233 14.6128C30.5956 11.9434 29.8083 9.67933 29.7738 9.58146L29.711 9.4035L20.1856 9.40351Z" fill="#E50914"/>
</g>
<defs>
<radialGradient id="paint0_radial_2906_14" cx="0" cy="0" r="1" gradientTransform="matrix(5.70327 -2.0096 72.3324 212.599 33.0571 33.714)" gradientUnits="userSpaceOnUse">
<stop/>
<stop offset="1" stop-opacity="0"/>
</radialGradient>
<radialGradient id="paint1_radial_2906_14" cx="0" cy="0" r="1" gradientTransform="matrix(5.70327 -2.0096 72.3324 212.599 33.0571 33.714)" gradientUnits="userSpaceOnUse">
<stop/>
<stop offset="1" stop-opacity="0"/>
</radialGradient>
<clipPath id="clip0_2906_14">
<rect width="27" height="50" fill="white" transform="translate(20 9)"/>
</clipPath>
</defs>
</svg>
